<svg xmlns="http://www.w3.org/2000/svg" xmlns:xlink="http://www.w3.org/1999/xlink" width="1080" zoomAndPan="magnify" viewBox="0 0 810 809.999993" height="1080" preserveAspectRatio="xMidYMid meet" version="1.0"><defs><g/><linearGradient x1="-0.500006" gradientTransform="matrix(1, 0, 0, 1, 0.00000617098, 0.0000102694)" y1="0.5" x2="565.6406" gradientUnits="userSpaceOnUse" y2="0.5" id="ea5b045e06"><stop stop-opacity="1" stop-color="rgb(100%, 100%, 100%)" offset="0"/><stop stop-opacity="1" stop-color="rgb(99.305725%, 99.305725%, 99.305725%)" offset="0.00390625"/><stop stop-opacity="1" stop-color="rgb(98.61145%, 98.61145%, 98.61145%)" offset="0.0078125"/><stop stop-opacity="1" stop-color="rgb(97.828674%, 97.828674%, 97.828674%)" offset="0.0117188"/><stop stop-opacity="1" stop-color="rgb(97.045898%, 97.045898%, 97.045898%)" offset="0.015625"/><stop stop-opacity="1" stop-color="rgb(96.263123%, 96.263123%, 96.263123%)" offset="0.0195313"/><stop stop-opacity="1" stop-color="rgb(95.480347%, 95.480347%, 95.480347%)" offset="0.0234375"/><stop stop-opacity="1" stop-color="rgb(94.697571%, 94.697571%, 94.697571%)" offset="0.0273438"/><stop stop-opacity="1" stop-color="rgb(93.914795%, 93.914795%, 93.914795%)" offset="0.03125"/><stop stop-opacity="1" stop-color="rgb(93.132019%, 93.132019%, 93.132019%)" offset="0.0351563"/><stop stop-opacity="1" stop-color="rgb(92.349243%, 92.349243%, 92.349243%)" offset="0.0390625"/><stop stop-opacity="1" stop-color="rgb(91.566467%, 91.566467%, 91.566467%)" offset="0.0429688"/><stop stop-opacity="1" stop-color="rgb(90.785217%, 90.785217%, 90.785217%)" offset="0.046875"/><stop stop-opacity="1" stop-color="rgb(90.002441%, 90.002441%, 90.002441%)" offset="0.0507812"/><stop stop-opacity="1" stop-color="rgb(89.219666%, 89.219666%, 89.219666%)" offset="0.0546875"/><stop stop-opacity="1" stop-color="rgb(88.43689%, 88.43689%, 88.43689%)" offset="0.0585938"/><stop stop-opacity="1" stop-color="rgb(87.654114%, 87.654114%, 87.654114%)" offset="0.0625"/><stop stop-opacity="1" stop-color="rgb(86.871338%, 86.871338%, 86.871338%)" offset="0.0664063"/><stop stop-opacity="1" stop-color="rgb(86.088562%, 86.088562%, 86.088562%)" offset="0.0703125"/><stop stop-opacity="1" stop-color="rgb(85.305786%, 85.305786%, 85.305786%)" offset="0.0742188"/><stop stop-opacity="1" stop-color="rgb(84.52301%, 84.52301%, 84.52301%)" offset="0.078125"/><stop stop-opacity="1" stop-color="rgb(83.740234%, 83.740234%, 83.740234%)" offset="0.0820313"/><stop stop-opacity="1" stop-color="rgb(82.958984%, 82.958984%, 82.958984%)" offset="0.0859375"/><stop stop-opacity="1" stop-color="rgb(82.176208%, 82.176208%, 82.176208%)" offset="0.0898438"/><stop stop-opacity="1" stop-color="rgb(81.393433%, 81.393433%, 81.393433%)" offset="0.09375"/><stop stop-opacity="1" stop-color="rgb(80.610657%, 80.610657%, 80.610657%)" offset="0.0976562"/><stop stop-opacity="1" stop-color="rgb(79.827881%, 79.827881%, 79.827881%)" offset="0.101562"/><stop stop-opacity="1" stop-color="rgb(79.045105%, 79.045105%, 79.045105%)" offset="0.105469"/><stop stop-opacity="1" stop-color="rgb(78.262329%, 78.262329%, 78.262329%)" offset="0.109375"/><stop stop-opacity="1" stop-color="rgb(77.479553%, 77.479553%, 77.479553%)" offset="0.113281"/><stop stop-opacity="1" stop-color="rgb(76.696777%, 76.696777%, 76.696777%)" offset="0.117188"/><stop stop-opacity="1" stop-color="rgb(75.914001%, 75.914001%, 75.914001%)" offset="0.121094"/><stop stop-opacity="1" stop-color="rgb(75.131226%, 75.131226%, 75.131226%)" offset="0.125"/><stop stop-opacity="1" stop-color="rgb(74.34845%, 74.34845%, 74.34845%)" offset="0.128906"/><stop stop-opacity="1" stop-color="rgb(73.5672%, 73.5672%, 73.5672%)" offset="0.132813"/><stop stop-opacity="1" stop-color="rgb(72.784424%, 72.784424%, 72.784424%)" offset="0.136719"/><stop stop-opacity="1" stop-color="rgb(72.001648%, 72.001648%, 72.001648%)" offset="0.140625"/><stop stop-opacity="1" stop-color="rgb(71.218872%, 71.218872%, 71.218872%)" offset="0.144531"/><stop stop-opacity="1" stop-color="rgb(70.436096%, 70.436096%, 70.436096%)" offset="0.148438"/><stop stop-opacity="1" stop-color="rgb(69.65332%, 69.65332%, 69.65332%)" offset="0.152344"/><stop stop-opacity="1" stop-color="rgb(68.870544%, 68.870544%, 68.870544%)" offset="0.15625"/><stop stop-opacity="1" stop-color="rgb(68.087769%, 68.087769%, 68.087769%)" offset="0.160156"/><stop stop-opacity="1" stop-color="rgb(67.304993%, 67.304993%, 67.304993%)" offset="0.164063"/><stop stop-opacity="1" stop-color="rgb(66.522217%, 66.522217%, 66.522217%)" offset="0.167969"/><stop stop-opacity="1" stop-color="rgb(65.740967%, 65.740967%, 65.740967%)" offset="0.171875"/><stop stop-opacity="1" stop-color="rgb(64.958191%, 64.958191%, 64.958191%)" offset="0.175781"/><stop stop-opacity="1" stop-color="rgb(64.175415%, 64.175415%, 64.175415%)" offset="0.179688"/><stop stop-opacity="1" stop-color="rgb(63.392639%, 63.392639%, 63.392639%)" offset="0.183594"/><stop stop-opacity="1" stop-color="rgb(62.609863%, 62.609863%, 62.609863%)" offset="0.1875"/><stop stop-opacity="1" stop-color="rgb(61.827087%, 61.827087%, 61.827087%)" offset="0.191406"/><stop stop-opacity="1" stop-color="rgb(61.044312%, 61.044312%, 61.044312%)" offset="0.195312"/><stop stop-opacity="1" stop-color="rgb(60.261536%, 60.261536%, 60.261536%)" offset="0.199219"/><stop stop-opacity="1" stop-color="rgb(59.47876%, 59.47876%, 59.47876%)" offset="0.203125"/><stop stop-opacity="1" stop-color="rgb(58.695984%, 58.695984%, 58.695984%)" offset="0.207031"/><stop stop-opacity="1" stop-color="rgb(57.914734%, 57.914734%, 57.914734%)" offset="0.210938"/><stop stop-opacity="1" stop-color="rgb(57.131958%, 57.131958%, 57.131958%)" offset="0.214844"/><stop stop-opacity="1" stop-color="rgb(56.349182%, 56.349182%, 56.349182%)" offset="0.21875"/><stop stop-opacity="1" stop-color="rgb(55.566406%, 55.566406%, 55.566406%)" offset="0.222656"/><stop stop-opacity="1" stop-color="rgb(54.78363%, 54.78363%, 54.78363%)" offset="0.226562"/><stop stop-opacity="1" stop-color="rgb(54.000854%, 54.000854%, 54.000854%)" offset="0.230469"/><stop stop-opacity="1" stop-color="rgb(53.218079%, 53.218079%, 53.218079%)" offset="0.234375"/><stop stop-opacity="1" stop-color="rgb(52.435303%, 52.435303%, 52.435303%)" offset="0.238281"/><stop stop-opacity="1" stop-color="rgb(51.652527%, 51.652527%, 51.652527%)" offset="0.242188"/><stop stop-opacity="1" stop-color="rgb(50.869751%, 50.869751%, 50.869751%)" offset="0.246094"/><stop stop-opacity="1" stop-color="rgb(50.088501%, 50.088501%, 50.088501%)" offset="0.25"/><stop stop-opacity="1" stop-color="rgb(49.305725%, 49.305725%, 49.305725%)" offset="0.253906"/><stop stop-opacity="1" stop-color="rgb(48.522949%, 48.522949%, 48.522949%)" offset="0.257813"/><stop stop-opacity="1" stop-color="rgb(47.740173%, 47.740173%, 47.740173%)" offset="0.261719"/><stop stop-opacity="1" stop-color="rgb(46.957397%, 46.957397%, 46.957397%)" offset="0.265625"/><stop stop-opacity="1" stop-color="rgb(46.174622%, 46.174622%, 46.174622%)" offset="0.269531"/><stop stop-opacity="1" stop-color="rgb(45.391846%, 45.391846%, 45.391846%)" offset="0.273438"/><stop stop-opacity="1" stop-color="rgb(44.60907%, 44.60907%, 44.60907%)" offset="0.277344"/><stop stop-opacity="1" stop-color="rgb(43.826294%, 43.826294%, 43.826294%)" offset="0.28125"/><stop stop-opacity="1" stop-color="rgb(43.043518%, 43.043518%, 43.043518%)" offset="0.285156"/><stop stop-opacity="1" stop-color="rgb(42.260742%, 42.260742%, 42.260742%)" offset="0.289063"/><stop stop-opacity="1" stop-color="rgb(41.477966%, 41.477966%, 41.477966%)" offset="0.292969"/><stop stop-opacity="1" stop-color="rgb(40.696716%, 40.696716%, 40.696716%)" offset="0.296875"/><stop stop-opacity="1" stop-color="rgb(39.91394%, 39.91394%, 39.91394%)" offset="0.300781"/><stop stop-opacity="1" stop-color="rgb(39.131165%, 39.131165%, 39.131165%)" offset="0.304688"/><stop stop-opacity="1" stop-color="rgb(38.348389%, 38.348389%, 38.348389%)" offset="0.308594"/><stop stop-opacity="1" stop-color="rgb(37.565613%, 37.565613%, 37.565613%)" offset="0.3125"/><stop stop-opacity="1" stop-color="rgb(36.782837%, 36.782837%, 36.782837%)" offset="0.316406"/><stop stop-opacity="1" stop-color="rgb(36.000061%, 36.000061%, 36.000061%)" offset="0.320313"/><stop stop-opacity="1" stop-color="rgb(35.217285%, 35.217285%, 35.217285%)" offset="0.324219"/><stop stop-opacity="1" stop-color="rgb(34.434509%, 34.434509%, 34.434509%)" offset="0.328125"/><stop stop-opacity="1" stop-color="rgb(33.651733%, 33.651733%, 33.651733%)" offset="0.332031"/><stop stop-opacity="1" stop-color="rgb(32.870483%, 32.870483%, 32.870483%)" offset="0.335938"/><stop stop-opacity="1" stop-color="rgb(32.087708%, 32.087708%, 32.087708%)" offset="0.339844"/><stop stop-opacity="1" stop-color="rgb(31.304932%, 31.304932%, 31.304932%)" offset="0.34375"/><stop stop-opacity="1" stop-color="rgb(30.522156%, 30.522156%, 30.522156%)" offset="0.347656"/><stop stop-opacity="1" stop-color="rgb(29.73938%, 29.73938%, 29.73938%)" offset="0.351563"/><stop stop-opacity="1" stop-color="rgb(28.956604%, 28.956604%, 28.956604%)" offset="0.355469"/><stop stop-opacity="1" stop-color="rgb(28.173828%, 28.173828%, 28.173828%)" offset="0.359375"/><stop stop-opacity="1" stop-color="rgb(27.391052%, 27.391052%, 27.391052%)" offset="0.363281"/><stop stop-opacity="1" stop-color="rgb(26.608276%, 26.608276%, 26.608276%)" offset="0.367188"/><stop stop-opacity="1" stop-color="rgb(25.8255%, 25.8255%, 25.8255%)" offset="0.371094"/><stop stop-opacity="1" stop-color="rgb(25.04425%, 25.04425%, 25.04425%)" offset="0.375"/><stop stop-opacity="1" stop-color="rgb(24.261475%, 24.261475%, 24.261475%)" offset="0.378906"/><stop stop-opacity="1" stop-color="rgb(23.478699%, 23.478699%, 23.478699%)" offset="0.382813"/><stop stop-opacity="1" stop-color="rgb(22.695923%, 22.695923%, 22.695923%)" offset="0.386719"/><stop stop-opacity="1" stop-color="rgb(21.913147%, 21.913147%, 21.913147%)" offset="0.390625"/><stop stop-opacity="1" stop-color="rgb(21.130371%, 21.130371%, 21.130371%)" offset="0.394531"/><stop stop-opacity="1" stop-color="rgb(20.347595%, 20.347595%, 20.347595%)" offset="0.398438"/><stop stop-opacity="1" stop-color="rgb(19.564819%, 19.564819%, 19.564819%)" offset="0.402344"/><stop stop-opacity="1" stop-color="rgb(18.782043%, 18.782043%, 18.782043%)" offset="0.40625"/><stop stop-opacity="1" stop-color="rgb(17.999268%, 17.999268%, 17.999268%)" offset="0.410156"/><stop stop-opacity="1" stop-color="rgb(17.216492%, 17.216492%, 17.216492%)" offset="0.414063"/><stop stop-opacity="1" stop-color="rgb(16.433716%, 16.433716%, 16.433716%)" offset="0.417969"/><stop stop-opacity="1" stop-color="rgb(15.652466%, 15.652466%, 15.652466%)" offset="0.421875"/><stop stop-opacity="1" stop-color="rgb(14.86969%, 14.86969%, 14.86969%)" offset="0.425781"/><stop stop-opacity="1" stop-color="rgb(14.086914%, 14.086914%, 14.086914%)" offset="0.429688"/><stop stop-opacity="1" stop-color="rgb(13.304138%, 13.304138%, 13.304138%)" offset="0.433594"/><stop stop-opacity="1" stop-color="rgb(12.521362%, 12.521362%, 12.521362%)" offset="0.4375"/><stop stop-opacity="1" stop-color="rgb(11.738586%, 11.738586%, 11.738586%)" offset="0.441406"/><stop stop-opacity="1" stop-color="rgb(10.955811%, 10.955811%, 10.955811%)" offset="0.445313"/><stop stop-opacity="1" stop-color="rgb(10.173035%, 10.173035%, 10.173035%)" offset="0.449219"/><stop stop-opacity="1" stop-color="rgb(9.390259%, 9.390259%, 9.390259%)" offset="0.453125"/><stop stop-opacity="1" stop-color="rgb(8.607483%, 8.607483%, 8.607483%)" offset="0.457031"/><stop stop-opacity="1" stop-color="rgb(7.826233%, 7.826233%, 7.826233%)" offset="0.460938"/><stop stop-opacity="1" stop-color="rgb(7.043457%, 7.043457%, 7.043457%)" offset="0.464844"/><stop stop-opacity="1" stop-color="rgb(6.260681%, 6.260681%, 6.260681%)" offset="0.46875"/><stop stop-opacity="1" stop-color="rgb(5.477905%, 5.477905%, 5.477905%)" offset="0.472656"/><stop stop-opacity="1" stop-color="rgb(4.695129%, 4.695129%, 4.695129%)" offset="0.476563"/><stop stop-opacity="1" stop-color="rgb(3.912354%, 3.912354%, 3.912354%)" offset="0.480469"/><stop stop-opacity="1" stop-color="rgb(3.129578%, 3.129578%, 3.129578%)" offset="0.484375"/><stop stop-opacity="1" stop-color="rgb(2.346802%, 2.346802%, 2.346802%)" offset="0.488281"/><stop stop-opacity="1" stop-color="rgb(1.564026%, 1.564026%, 1.564026%)" offset="0.492188"/><stop stop-opacity="1" stop-color="rgb(0.78125%, 0.78125%, 0.78125%)" offset="0.496094"/><stop stop-opacity="1" stop-color="rgb(0%, 0%, 0%)" offset="0.5"/><stop stop-opacity="1" stop-color="rgb(0.78125%, 0.78125%, 0.78125%)" offset="0.503906"/><stop stop-opacity="1" stop-color="rgb(1.564026%, 1.564026%, 1.564026%)" offset="0.507812"/><stop stop-opacity="1" stop-color="rgb(2.346802%, 2.346802%, 2.346802%)" offset="0.511719"/><stop stop-opacity="1" stop-color="rgb(3.129578%, 3.129578%, 3.129578%)" offset="0.515625"/><stop stop-opacity="1" stop-color="rgb(3.912354%, 3.912354%, 3.912354%)" offset="0.519531"/><stop stop-opacity="1" stop-color="rgb(4.695129%, 4.695129%, 4.695129%)" offset="0.523438"/><stop stop-opacity="1" stop-color="rgb(5.477905%, 5.477905%, 5.477905%)" offset="0.527344"/><stop stop-opacity="1" stop-color="rgb(6.260681%, 6.260681%, 6.260681%)" offset="0.53125"/><stop stop-opacity="1" stop-color="rgb(7.043457%, 7.043457%, 7.043457%)" offset="0.535156"/><stop stop-opacity="1" stop-color="rgb(7.826233%, 7.826233%, 7.826233%)" offset="0.539063"/><stop stop-opacity="1" stop-color="rgb(8.607483%, 8.607483%, 8.607483%)" offset="0.542969"/><stop stop-opacity="1" stop-color="rgb(9.390259%, 9.390259%, 9.390259%)" offset="0.546875"/><stop stop-opacity="1" stop-color="rgb(10.173035%, 10.173035%, 10.173035%)" offset="0.550781"/><stop stop-opacity="1" stop-color="rgb(10.955811%, 10.955811%, 10.955811%)" offset="0.554688"/><stop stop-opacity="1" stop-color="rgb(11.738586%, 11.738586%, 11.738586%)" offset="0.558594"/><stop stop-opacity="1" stop-color="rgb(12.521362%, 12.521362%, 12.521362%)" offset="0.5625"/><stop stop-opacity="1" stop-color="rgb(13.304138%, 13.304138%, 13.304138%)" offset="0.566406"/><stop stop-opacity="1" stop-color="rgb(14.086914%, 14.086914%, 14.086914%)" offset="0.570313"/><stop stop-opacity="1" stop-color="rgb(14.86969%, 14.86969%, 14.86969%)" offset="0.574219"/><stop stop-opacity="1" stop-color="rgb(15.652466%, 15.652466%, 15.652466%)" offset="0.578125"/><stop stop-opacity="1" stop-color="rgb(16.433716%, 16.433716%, 16.433716%)" offset="0.582031"/><stop stop-opacity="1" stop-color="rgb(17.216492%, 17.216492%, 17.216492%)" offset="0.585938"/><stop stop-opacity="1" stop-color="rgb(17.999268%, 17.999268%, 17.999268%)" offset="0.589844"/><stop stop-opacity="1" stop-color="rgb(18.782043%, 18.782043%, 18.782043%)" offset="0.59375"/><stop stop-opacity="1" stop-color="rgb(19.564819%, 19.564819%, 19.564819%)" offset="0.597656"/><stop stop-opacity="1" stop-color="rgb(20.347595%, 20.347595%, 20.347595%)" offset="0.601563"/><stop stop-opacity="1" stop-color="rgb(21.130371%, 21.130371%, 21.130371%)" offset="0.605469"/><stop stop-opacity="1" stop-color="rgb(21.913147%, 21.913147%, 21.913147%)" offset="0.609375"/><stop stop-opacity="1" stop-color="rgb(22.695923%, 22.695923%, 22.695923%)" offset="0.613281"/><stop stop-opacity="1" stop-color="rgb(23.478699%, 23.478699%, 23.478699%)" offset="0.617188"/><stop stop-opacity="1" stop-color="rgb(24.259949%, 24.259949%, 24.259949%)" offset="0.621094"/><stop stop-opacity="1" stop-color="rgb(25.042725%, 25.042725%, 25.042725%)" offset="0.625"/><stop stop-opacity="1" stop-color="rgb(25.8255%, 25.8255%, 25.8255%)" offset="0.628906"/><stop stop-opacity="1" stop-color="rgb(26.608276%, 26.608276%, 26.608276%)" offset="0.632813"/><stop stop-opacity="1" stop-color="rgb(27.391052%, 27.391052%, 27.391052%)" offset="0.636719"/><stop stop-opacity="1" stop-color="rgb(28.173828%, 28.173828%, 28.173828%)" offset="0.640625"/><stop stop-opacity="1" stop-color="rgb(28.956604%, 28.956604%, 28.956604%)" offset="0.644531"/><stop stop-opacity="1" stop-color="rgb(29.73938%, 29.73938%, 29.73938%)" offset="0.648438"/><stop stop-opacity="1" stop-color="rgb(30.522156%, 30.522156%, 30.522156%)" offset="0.652344"/><stop stop-opacity="1" stop-color="rgb(31.304932%, 31.304932%, 31.304932%)" offset="0.65625"/><stop stop-opacity="1" stop-color="rgb(32.086182%, 32.086182%, 32.086182%)" offset="0.660156"/><stop stop-opacity="1" stop-color="rgb(32.868958%, 32.868958%, 32.868958%)" offset="0.664063"/><stop stop-opacity="1" stop-color="rgb(33.651733%, 33.651733%, 33.651733%)" offset="0.667969"/><stop stop-opacity="1" stop-color="rgb(34.434509%, 34.434509%, 34.434509%)" offset="0.671875"/><stop stop-opacity="1" stop-color="rgb(35.217285%, 35.217285%, 35.217285%)" offset="0.675781"/><stop stop-opacity="1" stop-color="rgb(36.000061%, 36.000061%, 36.000061%)" offset="0.679688"/><stop stop-opacity="1" stop-color="rgb(36.782837%, 36.782837%, 36.782837%)" offset="0.683594"/><stop stop-opacity="1" stop-color="rgb(37.565613%, 37.565613%, 37.565613%)" offset="0.6875"/><stop stop-opacity="1" stop-color="rgb(38.348389%, 38.348389%, 38.348389%)" offset="0.691406"/><stop stop-opacity="1" stop-color="rgb(39.131165%, 39.131165%, 39.131165%)" offset="0.695313"/><stop stop-opacity="1" stop-color="rgb(39.91394%, 39.91394%, 39.91394%)" offset="0.699219"/><stop stop-opacity="1" stop-color="rgb(40.696716%, 40.696716%, 40.696716%)" offset="0.703125"/><stop stop-opacity="1" stop-color="rgb(41.477966%, 41.477966%, 41.477966%)" offset="0.707031"/><stop stop-opacity="1" stop-color="rgb(42.260742%, 42.260742%, 42.260742%)" offset="0.710938"/><stop stop-opacity="1" stop-color="rgb(43.043518%, 43.043518%, 43.043518%)" offset="0.714844"/><stop stop-opacity="1" stop-color="rgb(43.826294%, 43.826294%, 43.826294%)" offset="0.71875"/><stop stop-opacity="1" stop-color="rgb(44.60907%, 44.60907%, 44.60907%)" offset="0.722656"/><stop stop-opacity="1" stop-color="rgb(45.391846%, 45.391846%, 45.391846%)" offset="0.726563"/><stop stop-opacity="1" stop-color="rgb(46.174622%, 46.174622%, 46.174622%)" offset="0.730469"/><stop stop-opacity="1" stop-color="rgb(46.957397%, 46.957397%, 46.957397%)" offset="0.734375"/><stop stop-opacity="1" stop-color="rgb(47.740173%, 47.740173%, 47.740173%)" offset="0.738281"/><stop stop-opacity="1" stop-color="rgb(48.522949%, 48.522949%, 48.522949%)" offset="0.742188"/><stop stop-opacity="1" stop-color="rgb(49.304199%, 49.304199%, 49.304199%)" offset="0.746094"/><stop stop-opacity="1" stop-color="rgb(50.086975%, 50.086975%, 50.086975%)" offset="0.75"/><stop stop-opacity="1" stop-color="rgb(50.869751%, 50.869751%, 50.869751%)" offset="0.753906"/><stop stop-opacity="1" stop-color="rgb(51.652527%, 51.652527%, 51.652527%)" offset="0.757812"/><stop stop-opacity="1" stop-color="rgb(52.435303%, 52.435303%, 52.435303%)" offset="0.761719"/><stop stop-opacity="1" stop-color="rgb(53.218079%, 53.218079%, 53.218079%)" offset="0.765625"/><stop stop-opacity="1" stop-color="rgb(54.000854%, 54.000854%, 54.000854%)" offset="0.769531"/><stop stop-opacity="1" stop-color="rgb(54.78363%, 54.78363%, 54.78363%)" offset="0.773438"/><stop stop-opacity="1" stop-color="rgb(55.566406%, 55.566406%, 55.566406%)" offset="0.777344"/><stop stop-opacity="1" stop-color="rgb(56.349182%, 56.349182%, 56.349182%)" offset="0.78125"/><stop stop-opacity="1" stop-color="rgb(57.130432%, 57.130432%, 57.130432%)" offset="0.785156"/><stop stop-opacity="1" stop-color="rgb(57.913208%, 57.913208%, 57.913208%)" offset="0.789062"/><stop stop-opacity="1" stop-color="rgb(58.695984%, 58.695984%, 58.695984%)" offset="0.792969"/><stop stop-opacity="1" stop-color="rgb(59.47876%, 59.47876%, 59.47876%)" offset="0.796875"/><stop stop-opacity="1" stop-color="rgb(60.261536%, 60.261536%, 60.261536%)" offset="0.800781"/><stop stop-opacity="1" stop-color="rgb(61.044312%, 61.044312%, 61.044312%)" offset="0.804688"/><stop stop-opacity="1" stop-color="rgb(61.827087%, 61.827087%, 61.827087%)" offset="0.808594"/><stop stop-opacity="1" stop-color="rgb(62.609863%, 62.609863%, 62.609863%)" offset="0.8125"/><stop stop-opacity="1" stop-color="rgb(63.392639%, 63.392639%, 63.392639%)" offset="0.816406"/><stop stop-opacity="1" stop-color="rgb(64.175415%, 64.175415%, 64.175415%)" offset="0.820312"/><stop stop-opacity="1" stop-color="rgb(64.958191%, 64.958191%, 64.958191%)" offset="0.824219"/><stop stop-opacity="1" stop-color="rgb(65.740967%, 65.740967%, 65.740967%)" offset="0.828125"/><stop stop-opacity="1" stop-color="rgb(66.522217%, 66.522217%, 66.522217%)" offset="0.832031"/><stop stop-opacity="1" stop-color="rgb(67.304993%, 67.304993%, 67.304993%)" offset="0.835938"/><stop stop-opacity="1" stop-color="rgb(68.087769%, 68.087769%, 68.087769%)" offset="0.839844"/><stop stop-opacity="1" stop-color="rgb(68.870544%, 68.870544%, 68.870544%)" offset="0.84375"/><stop stop-opacity="1" stop-color="rgb(69.65332%, 69.65332%, 69.65332%)" offset="0.847656"/><stop stop-opacity="1" stop-color="rgb(70.436096%, 70.436096%, 70.436096%)" offset="0.851562"/><stop stop-opacity="1" stop-color="rgb(71.218872%, 71.218872%, 71.218872%)" offset="0.855469"/><stop stop-opacity="1" stop-color="rgb(72.001648%, 72.001648%, 72.001648%)" offset="0.859375"/><stop stop-opacity="1" stop-color="rgb(72.784424%, 72.784424%, 72.784424%)" offset="0.863281"/><stop stop-opacity="1" stop-color="rgb(73.5672%, 73.5672%, 73.5672%)" offset="0.867188"/><stop stop-opacity="1" stop-color="rgb(74.34845%, 74.34845%, 74.34845%)" offset="0.871094"/><stop stop-opacity="1" stop-color="rgb(75.131226%, 75.131226%, 75.131226%)" offset="0.875"/><stop stop-opacity="1" stop-color="rgb(75.914001%, 75.914001%, 75.914001%)" offset="0.878906"/><stop stop-opacity="1" stop-color="rgb(76.696777%, 76.696777%, 76.696777%)" offset="0.882812"/><stop stop-opacity="1" stop-color="rgb(77.479553%, 77.479553%, 77.479553%)" offset="0.886719"/><stop stop-opacity="1" stop-color="rgb(78.262329%, 78.262329%, 78.262329%)" offset="0.890625"/><stop stop-opacity="1" stop-color="rgb(79.045105%, 79.045105%, 79.045105%)" offset="0.894531"/><stop stop-opacity="1" stop-color="rgb(79.827881%, 79.827881%, 79.827881%)" offset="0.898438"/><stop stop-opacity="1" stop-color="rgb(80.610657%, 80.610657%, 80.610657%)" offset="0.902344"/><stop stop-opacity="1" stop-color="rgb(81.393433%, 81.393433%, 81.393433%)" offset="0.90625"/><stop stop-opacity="1" stop-color="rgb(82.174683%, 82.174683%, 82.174683%)" offset="0.910156"/><stop stop-opacity="1" stop-color="rgb(82.957458%, 82.957458%, 82.957458%)" offset="0.914062"/><stop stop-opacity="1" stop-color="rgb(83.740234%, 83.740234%, 83.740234%)" offset="0.917969"/><stop stop-opacity="1" stop-color="rgb(84.52301%, 84.52301%, 84.52301%)" offset="0.921875"/><stop stop-opacity="1" stop-color="rgb(85.305786%, 85.305786%, 85.305786%)" offset="0.925781"/><stop stop-opacity="1" stop-color="rgb(86.088562%, 86.088562%, 86.088562%)" offset="0.929688"/><stop stop-opacity="1" stop-color="rgb(86.871338%, 86.871338%, 86.871338%)" offset="0.933594"/><stop stop-opacity="1" stop-color="rgb(87.654114%, 87.654114%, 87.654114%)" offset="0.9375"/><stop stop-opacity="1" stop-color="rgb(88.43689%, 88.43689%, 88.43689%)" offset="0.941406"/><stop stop-opacity="1" stop-color="rgb(89.219666%, 89.219666%, 89.219666%)" offset="0.945312"/><stop stop-opacity="1" stop-color="rgb(90.002441%, 90.002441%, 90.002441%)" offset="0.949219"/><stop stop-opacity="1" stop-color="rgb(90.785217%, 90.785217%, 90.785217%)" offset="0.953125"/><stop stop-opacity="1" stop-color="rgb(91.566467%, 91.566467%, 91.566467%)" offset="0.957031"/><stop stop-opacity="1" stop-color="rgb(92.349243%, 92.349243%, 92.349243%)" offset="0.960938"/><stop stop-opacity="1" stop-color="rgb(93.132019%, 93.132019%, 93.132019%)" offset="0.964844"/><stop stop-opacity="1" stop-color="rgb(93.914795%, 93.914795%, 93.914795%)" offset="0.96875"/><stop stop-opacity="1" stop-color="rgb(94.697571%, 94.697571%, 94.697571%)" offset="0.972656"/><stop stop-opacity="1" stop-color="rgb(95.480347%, 95.480347%, 95.480347%)" offset="0.976562"/><stop stop-opacity="1" stop-color="rgb(96.263123%, 96.263123%, 96.263123%)" offset="0.980469"/><stop stop-opacity="1" stop-color="rgb(97.045898%, 97.045898%, 97.045898%)" offset="0.984375"/><stop stop-opacity="1" stop-color="rgb(97.828674%, 97.828674%, 97.828674%)" offset="0.988281"/><stop stop-opacity="1" stop-color="rgb(98.61145%, 98.61145%, 98.61145%)" offset="0.992188"/><stop stop-opacity="1" stop-color="rgb(99.305725%, 99.305725%, 99.305725%)" offset="0.996094"/><stop stop-opacity="1" stop-color="rgb(100%, 100%, 100%)" offset="1"/></linearGradient><clipPath id="c401fbd2b0"><path d="M 92.667969 370.289062 L 220.960938 370.289062 L 220.960938 482 L 92.667969 482 Z M 92.667969 370.289062 " clip-rule="nonzero"/></clipPath><clipPath id="39c25ac31f"><path d="M 220.828125 481.851562 L 92.667969 481.851562 L 156.417969 370.289062 L 188.890625 426.535156 Z M 220.828125 481.851562 " clip-rule="nonzero"/></clipPath><clipPath id="b0d88e4f93"><path d="M 0.667969 0.289062 L 128.960938 0.289062 L 128.960938 111.921875 L 0.667969 111.921875 Z M 0.667969 0.289062 " clip-rule="nonzero"/></clipPath><clipPath id="face9b699a"><path d="M 128.828125 111.851562 L 0.667969 111.851562 L 64.417969 0.289062 L 96.890625 56.535156 Z M 128.828125 111.851562 " clip-rule="nonzero"/></clipPath><clipPath id="1b9095400d"><rect x="0" width="129" y="0" height="112"/></clipPath><clipPath id="a01dc4539f"><path d="M 189.640625 369.570312 L 285.640625 369.570312 L 285.640625 482 L 189.640625 482 Z M 189.640625 369.570312 " clip-rule="nonzero"/></clipPath><clipPath id="ebf338c02a"><path d="M 173.359375 356.234375 L 204.882812 356.234375 L 204.882812 383.882812 L 173.359375 383.882812 Z M 173.359375 356.234375 " clip-rule="nonzero"/></clipPath><clipPath id="9708b8d396"><path d="M 189.097656 383.773438 L 204.832031 356.234375 L 173.359375 356.234375 Z M 189.097656 383.773438 " clip-rule="nonzero"/></clipPath><clipPath id="c316faa31a"><path d="M 0.359375 0.234375 L 31.882812 0.234375 L 31.882812 27.882812 L 0.359375 27.882812 Z M 0.359375 0.234375 " clip-rule="nonzero"/></clipPath><clipPath id="4a73f494cb"><path d="M 16.097656 27.773438 L 31.832031 0.234375 L 0.359375 0.234375 Z M 16.097656 27.773438 " clip-rule="nonzero"/></clipPath><clipPath id="f402f7b412"><rect x="0" width="32" y="0" height="28"/></clipPath><clipPath id="8848fa07ef"><path d="M 173.371094 327.25 L 204.890625 327.25 L 204.890625 354.898438 L 173.371094 354.898438 Z M 173.371094 327.25 " clip-rule="nonzero"/></clipPath><clipPath id="26b706cb39"><path d="M 204.84375 354.789062 L 189.109375 327.25 L 173.371094 354.789062 Z M 204.84375 354.789062 " clip-rule="nonzero"/></clipPath><clipPath id="b00f4c1374"><path d="M 0.371094 0.25 L 31.890625 0.25 L 31.890625 27.898438 L 0.371094 27.898438 Z M 0.371094 0.25 " clip-rule="nonzero"/></clipPath><clipPath id="0b24a2e625"><path d="M 31.84375 27.789062 L 16.109375 0.25 L 0.371094 27.789062 Z M 31.84375 27.789062 " clip-rule="nonzero"/></clipPath><clipPath id="4bb1b38071"><rect x="0" width="32" y="0" height="28"/></clipPath></defs><g fill="#000000" fill-opacity="1"><g transform="translate(293.477626, 405.3)"><g><path d="M 61.984375 -57.40625 L 37.140625 0 L 24.03125 0 L -0.734375 -57.40625 L 13.609375 -57.40625 L 31.078125 -16.40625 L 48.796875 -57.40625 Z M 61.984375 -57.40625 "/></g></g></g><g fill="#000000" fill-opacity="1"><g transform="translate(354.64666, 405.3)"><g><path d="M 61.984375 -57.40625 L 37.140625 0 L 24.03125 0 L -0.734375 -57.40625 L 13.609375 -57.40625 L 31.078125 -16.40625 L 48.796875 -57.40625 Z M 61.984375 -57.40625 "/></g></g></g><g fill="#000000" fill-opacity="1"><g transform="translate(413.76576, 405.3)"><g><path d="M 34.359375 -20.34375 L 34.359375 0 L 21.078125 0 L 21.078125 -20.5 L -1.140625 -57.40625 L 12.953125 -57.40625 L 28.296875 -31.890625 L 43.625 -57.40625 L 56.65625 -57.40625 Z M 34.359375 -20.34375 "/></g></g></g><g fill="#000000" fill-opacity="1"><g transform="translate(467.965102, 405.3)"><g><path d="M 25.671875 0.984375 C 21.128906 0.984375 16.738281 0.367188 12.5 -0.859375 C 8.269531 -2.085938 4.867188 -3.6875 2.296875 -5.65625 L 6.8125 -15.65625 C 9.269531 -13.851562 12.191406 -12.40625 15.578125 -11.3125 C 18.960938 -10.21875 22.351562 -9.671875 25.75 -9.671875 C 29.519531 -9.671875 32.304688 -10.226562 34.109375 -11.34375 C 35.910156 -12.46875 36.8125 -13.960938 36.8125 -15.828125 C 36.8125 -17.191406 36.28125 -18.320312 35.21875 -19.21875 C 34.15625 -20.125 32.789062 -20.847656 31.125 -21.390625 C 29.457031 -21.941406 27.203125 -22.546875 24.359375 -23.203125 C 19.984375 -24.242188 16.398438 -25.28125 13.609375 -26.3125 C 10.828125 -27.351562 8.4375 -29.019531 6.4375 -31.3125 C 4.4375 -33.613281 3.4375 -36.679688 3.4375 -40.515625 C 3.4375 -43.847656 4.335938 -46.863281 6.140625 -49.5625 C 7.953125 -52.269531 10.675781 -54.414062 14.3125 -56 C 17.945312 -57.59375 22.390625 -58.390625 27.640625 -58.390625 C 31.296875 -58.390625 34.875 -57.953125 38.375 -57.078125 C 41.875 -56.203125 44.9375 -54.941406 47.5625 -53.296875 L 43.453125 -43.21875 C 38.148438 -46.21875 32.847656 -47.71875 27.546875 -47.71875 C 23.828125 -47.71875 21.078125 -47.113281 19.296875 -45.90625 C 17.523438 -44.707031 16.640625 -43.125 16.640625 -41.15625 C 16.640625 -39.195312 17.664062 -37.738281 19.71875 -36.78125 C 21.769531 -35.820312 24.898438 -34.878906 29.109375 -33.953125 C 33.484375 -32.910156 37.0625 -31.867188 39.84375 -30.828125 C 42.632812 -29.796875 45.023438 -28.15625 47.015625 -25.90625 C 49.015625 -23.664062 50.015625 -20.632812 50.015625 -16.8125 C 50.015625 -13.53125 49.097656 -10.535156 47.265625 -7.828125 C 45.441406 -5.117188 42.695312 -2.972656 39.03125 -1.390625 C 35.363281 0.191406 30.910156 0.984375 25.671875 0.984375 Z M 25.671875 0.984375 "/></g></g></g><g fill="#000000" fill-opacity="1"><g transform="translate(520.278549, 405.3)"><g><path d="M 34.609375 0.984375 C 28.648438 0.984375 23.273438 -0.296875 18.484375 -2.859375 C 13.703125 -5.429688 9.957031 -8.972656 7.25 -13.484375 C 4.550781 -17.992188 3.203125 -23.066406 3.203125 -28.703125 C 3.203125 -34.328125 4.550781 -39.394531 7.25 -43.90625 C 9.957031 -48.414062 13.703125 -51.957031 18.484375 -54.53125 C 23.273438 -57.101562 28.648438 -58.390625 34.609375 -58.390625 C 40.566406 -58.390625 45.921875 -57.101562 50.671875 -54.53125 C 55.429688 -51.957031 59.175781 -48.414062 61.90625 -43.90625 C 64.644531 -39.394531 66.015625 -34.328125 66.015625 -28.703125 C 66.015625 -23.066406 64.644531 -17.992188 61.90625 -13.484375 C 59.175781 -8.972656 55.429688 -5.429688 50.671875 -2.859375 C 45.921875 -0.296875 40.566406 0.984375 34.609375 0.984375 Z M 34.609375 -10.328125 C 37.992188 -10.328125 41.050781 -11.101562 43.78125 -12.65625 C 46.519531 -14.21875 48.664062 -16.394531 50.21875 -19.1875 C 51.78125 -21.976562 52.5625 -25.148438 52.5625 -28.703125 C 52.5625 -32.253906 51.78125 -35.421875 50.21875 -38.203125 C 48.664062 -40.992188 46.519531 -43.164062 43.78125 -44.71875 C 41.050781 -46.28125 37.992188 -47.0625 34.609375 -47.0625 C 31.210938 -47.0625 28.144531 -46.28125 25.40625 -44.71875 C 22.675781 -43.164062 20.53125 -40.992188 18.96875 -38.203125 C 17.414062 -35.421875 16.640625 -32.253906 16.640625 -28.703125 C 16.640625 -25.148438 17.414062 -21.976562 18.96875 -19.1875 C 20.53125 -16.394531 22.675781 -14.21875 25.40625 -12.65625 C 28.144531 -11.101562 31.210938 -10.328125 34.609375 -10.328125 Z M 34.609375 -10.328125 "/></g></g></g><g fill="#000000" fill-opacity="1"><g transform="translate(589.483211, 405.3)"><g><path d="M 27.71875 -22.546875 L 20.015625 -14.515625 L 20.015625 0 L 6.8125 0 L 6.8125 -57.40625 L 20.015625 -57.40625 L 20.015625 -30.59375 L 45.421875 -57.40625 L 60.1875 -57.40625 L 36.40625 -31.8125 L 61.578125 0 L 46.078125 0 Z M 27.71875 -22.546875 "/></g></g></g><g fill="#000000" fill-opacity="1"><g transform="translate(648.110329, 405.3)"><g><path d="M 34.609375 0.984375 C 28.648438 0.984375 23.273438 -0.296875 18.484375 -2.859375 C 13.703125 -5.429688 9.957031 -8.972656 7.25 -13.484375 C 4.550781 -17.992188 3.203125 -23.066406 3.203125 -28.703125 C 3.203125 -34.328125 4.550781 -39.394531 7.25 -43.90625 C 9.957031 -48.414062 13.703125 -51.957031 18.484375 -54.53125 C 23.273438 -57.101562 28.648438 -58.390625 34.609375 -58.390625 C 40.566406 -58.390625 45.921875 -57.101562 50.671875 -54.53125 C 55.429688 -51.957031 59.175781 -48.414062 61.90625 -43.90625 C 64.644531 -39.394531 66.015625 -34.328125 66.015625 -28.703125 C 66.015625 -23.066406 64.644531 -17.992188 61.90625 -13.484375 C 59.175781 -8.972656 55.429688 -5.429688 50.671875 -2.859375 C 45.921875 -0.296875 40.566406 0.984375 34.609375 0.984375 Z M 34.609375 -10.328125 C 37.992188 -10.328125 41.050781 -11.101562 43.78125 -12.65625 C 46.519531 -14.21875 48.664062 -16.394531 50.21875 -19.1875 C 51.78125 -21.976562 52.5625 -25.148438 52.5625 -28.703125 C 52.5625 -32.253906 51.78125 -35.421875 50.21875 -38.203125 C 48.664062 -40.992188 46.519531 -43.164062 43.78125 -44.71875 C 41.050781 -46.28125 37.992188 -47.0625 34.609375 -47.0625 C 31.210938 -47.0625 28.144531 -46.28125 25.40625 -44.71875 C 22.675781 -43.164062 20.53125 -40.992188 18.96875 -38.203125 C 17.414062 -35.421875 16.640625 -32.253906 16.640625 -28.703125 C 16.640625 -25.148438 17.414062 -21.976562 18.96875 -19.1875 C 20.53125 -16.394531 22.675781 -14.21875 25.40625 -12.65625 C 28.144531 -11.101562 31.210938 -10.328125 34.609375 -10.328125 Z M 34.609375 -10.328125 "/></g></g></g><path stroke-linecap="butt" transform="matrix(0.75, 0, 0, 0.75, 293.477626, 424.850039)" fill="none" stroke-linejoin="miter" d="M -0.00141845 0.502032 L 565.139235 0.502032 " stroke="url(#ea5b045e06)" stroke-width="1" stroke-miterlimit="4"/><g fill="#000000" fill-opacity="1"><g transform="translate(328.358483, 472.550036)"><g><path d="M 9.75 0 L 0 -25.6875 L 4.171875 -25.6875 L 9.828125 -10.15625 C 10.210938 -9.09375 10.609375 -7.921875 11.015625 -6.640625 C 11.421875 -5.359375 11.703125 -4.328125 11.859375 -3.546875 L 12.03125 -3.546875 C 12.21875 -4.328125 12.53125 -5.359375 12.96875 -6.640625 C 13.40625 -7.929688 13.800781 -9.101562 14.15625 -10.15625 L 19.8125 -25.6875 L 23.984375 -25.6875 L 14.203125 0 Z M 9.75 0 "/></g></g><g transform="translate(352.335044, 472.550036)"><g><path d="M 9.75 0 L 0 -25.6875 L 4.171875 -25.6875 L 9.828125 -10.15625 C 10.210938 -9.09375 10.609375 -7.921875 11.015625 -6.640625 C 11.421875 -5.359375 11.703125 -4.328125 11.859375 -3.546875 L 12.03125 -3.546875 C 12.21875 -4.328125 12.53125 -5.359375 12.96875 -6.640625 C 13.40625 -7.929688 13.800781 -9.101562 14.15625 -10.15625 L 19.8125 -25.6875 L 23.984375 -25.6875 L 14.203125 0 Z M 9.75 0 "/></g></g><g transform="translate(376.311606, 472.550036)"><g><path d="M 8 -25.6875 L 8 0 L 4.109375 0 L 4.109375 -25.6875 Z M 6.09375 -35.296875 C 6.738281 -35.296875 7.289062 -35.085938 7.75 -34.671875 C 8.207031 -34.265625 8.4375 -33.625 8.4375 -32.75 C 8.4375 -31.882812 8.207031 -31.238281 7.75 -30.8125 C 7.289062 -30.394531 6.738281 -30.1875 6.09375 -30.1875 C 5.425781 -30.1875 4.867188 -30.394531 4.421875 -30.8125 C 3.972656 -31.238281 3.75 -31.882812 3.75 -32.75 C 3.75 -33.625 3.972656 -34.265625 4.421875 -34.671875 C 4.867188 -35.085938 5.425781 -35.296875 6.09375 -35.296875 Z M 6.09375 -35.296875 "/></g></g><g transform="translate(388.428793, 472.550036)"><g><path d="M 13.25 0.46875 C 10 0.46875 7.421875 -0.640625 5.515625 -2.859375 C 3.617188 -5.078125 2.671875 -8.375 2.671875 -12.75 C 2.671875 -17.175781 3.640625 -20.515625 5.578125 -22.765625 C 7.515625 -25.023438 10.09375 -26.15625 13.3125 -26.15625 C 14.675781 -26.15625 15.863281 -25.972656 16.875 -25.609375 C 17.894531 -25.253906 18.769531 -24.773438 19.5 -24.171875 C 20.238281 -23.578125 20.859375 -22.894531 21.359375 -22.125 L 21.640625 -22.125 C 21.578125 -22.613281 21.515625 -23.28125 21.453125 -24.125 C 21.390625 -24.96875 21.359375 -25.65625 21.359375 -26.1875 L 21.359375 -36.46875 L 25.25 -36.46875 L 25.25 0 L 22.109375 0 L 21.515625 -3.65625 L 21.359375 -3.65625 C 20.867188 -2.894531 20.253906 -2.203125 19.515625 -1.578125 C 18.773438 -0.953125 17.890625 -0.453125 16.859375 -0.078125 C 15.835938 0.285156 14.632812 0.46875 13.25 0.46875 Z M 13.859375 -2.765625 C 16.609375 -2.765625 18.550781 -3.546875 19.6875 -5.109375 C 20.832031 -6.671875 21.40625 -8.992188 21.40625 -12.078125 L 21.40625 -12.78125 C 21.40625 -16.039062 20.859375 -18.546875 19.765625 -20.296875 C 18.679688 -22.046875 16.710938 -22.921875 13.859375 -22.921875 C 11.460938 -22.921875 9.671875 -22.003906 8.484375 -20.171875 C 7.296875 -18.335938 6.703125 -15.832031 6.703125 -12.65625 C 6.703125 -9.5 7.289062 -7.0625 8.46875 -5.34375 C 9.65625 -3.625 11.453125 -2.765625 13.859375 -2.765625 Z M 13.859375 -2.765625 "/></g></g><g transform="translate(417.795979, 472.550036)"><g><path d="M 20.609375 0 L 1.875 0 L 1.875 -2.578125 L 15.96875 -22.640625 L 2.765625 -22.640625 L 2.765625 -25.6875 L 20.296875 -25.6875 L 20.296875 -22.8125 L 6.40625 -3.03125 L 20.609375 -3.03125 Z M 20.609375 0 "/></g></g><g transform="translate(440.295978, 472.550036)"><g><path d="M 8 -25.6875 L 8 0 L 4.109375 0 L 4.109375 -25.6875 Z M 6.09375 -35.296875 C 6.738281 -35.296875 7.289062 -35.085938 7.75 -34.671875 C 8.207031 -34.265625 8.4375 -33.625 8.4375 -32.75 C 8.4375 -31.882812 8.207031 -31.238281 7.75 -30.8125 C 7.289062 -30.394531 6.738281 -30.1875 6.09375 -30.1875 C 5.425781 -30.1875 4.867188 -30.394531 4.421875 -30.8125 C 3.972656 -31.238281 3.75 -31.882812 3.75 -32.75 C 3.75 -33.625 3.972656 -34.265625 4.421875 -34.671875 C 4.867188 -35.085938 5.425781 -35.296875 6.09375 -35.296875 Z M 6.09375 -35.296875 "/></g></g><g transform="translate(452.413165, 472.550036)"><g><path d="M 32 -26.15625 C 34.820312 -26.15625 36.953125 -25.414062 38.390625 -23.9375 C 39.828125 -22.46875 40.546875 -20.097656 40.546875 -16.828125 L 40.546875 0 L 36.703125 0 L 36.703125 -16.640625 C 36.703125 -18.722656 36.253906 -20.28125 35.359375 -21.3125 C 34.460938 -22.351562 33.128906 -22.875 31.359375 -22.875 C 28.878906 -22.875 27.078125 -22.15625 25.953125 -20.71875 C 24.828125 -19.28125 24.265625 -17.164062 24.265625 -14.375 L 24.265625 0 L 20.390625 0 L 20.390625 -16.640625 C 20.390625 -18.035156 20.191406 -19.191406 19.796875 -20.109375 C 19.398438 -21.035156 18.804688 -21.726562 18.015625 -22.1875 C 17.222656 -22.644531 16.226562 -22.875 15.03125 -22.875 C 13.320312 -22.875 11.953125 -22.519531 10.921875 -21.8125 C 9.890625 -21.113281 9.144531 -20.070312 8.6875 -18.6875 C 8.226562 -17.3125 8 -15.613281 8 -13.59375 L 8 0 L 4.109375 0 L 4.109375 -25.6875 L 7.25 -25.6875 L 7.828125 -22.0625 L 8.046875 -22.0625 C 8.554688 -22.945312 9.203125 -23.691406 9.984375 -24.296875 C 10.765625 -24.910156 11.640625 -25.375 12.609375 -25.6875 C 13.578125 -26 14.609375 -26.15625 15.703125 -26.15625 C 17.660156 -26.15625 19.296875 -25.789062 20.609375 -25.0625 C 21.929688 -24.34375 22.890625 -23.238281 23.484375 -21.75 L 23.703125 -21.75 C 24.546875 -23.238281 25.703125 -24.34375 27.171875 -25.0625 C 28.640625 -25.789062 30.25 -26.15625 32 -26.15625 Z M 32 -26.15625 "/></g></g><g transform="translate(496.850663, 472.550036)"><g><path d="M 0.046875 -25.6875 L 4.21875 -25.6875 L 9.890625 -10.78125 C 10.222656 -9.90625 10.53125 -9.066406 10.8125 -8.265625 C 11.09375 -7.460938 11.34375 -6.691406 11.5625 -5.953125 C 11.78125 -5.222656 11.953125 -4.515625 12.078125 -3.828125 L 12.234375 -3.828125 C 12.453125 -4.609375 12.765625 -5.632812 13.171875 -6.90625 C 13.578125 -8.175781 14.015625 -9.476562 14.484375 -10.8125 L 19.859375 -25.6875 L 24.046875 -25.6875 L 12.875 3.78125 C 12.28125 5.351562 11.585938 6.722656 10.796875 7.890625 C 10.003906 9.066406 9.046875 9.972656 7.921875 10.609375 C 6.796875 11.242188 5.4375 11.5625 3.84375 11.5625 C 3.113281 11.5625 2.46875 11.515625 1.90625 11.421875 C 1.34375 11.335938 0.859375 11.242188 0.453125 11.140625 L 0.453125 8.015625 C 0.796875 8.097656 1.210938 8.171875 1.703125 8.234375 C 2.191406 8.296875 2.703125 8.328125 3.234375 8.328125 C 4.203125 8.328125 5.039062 8.140625 5.75 7.765625 C 6.46875 7.398438 7.082031 6.863281 7.59375 6.15625 C 8.113281 5.457031 8.5625 4.625 8.9375 3.65625 L 10.34375 0.046875 Z M 0.046875 -25.6875 "/></g></g><g transform="translate(520.897536, 472.550036)"><g/></g><g transform="translate(533.366286, 472.550036)"><g><path d="M 9.75 0 L 0 -25.6875 L 4.171875 -25.6875 L 9.828125 -10.15625 C 10.210938 -9.09375 10.609375 -7.921875 11.015625 -6.640625 C 11.421875 -5.359375 11.703125 -4.328125 11.859375 -3.546875 L 12.03125 -3.546875 C 12.21875 -4.328125 12.53125 -5.359375 12.96875 -6.640625 C 13.40625 -7.929688 13.800781 -9.101562 14.15625 -10.15625 L 19.8125 -25.6875 L 23.984375 -25.6875 L 14.203125 0 Z M 9.75 0 "/></g></g><g transform="translate(557.342847, 472.550036)"><g><path d="M 9.75 0 L 0 -25.6875 L 4.171875 -25.6875 L 9.828125 -10.15625 C 10.210938 -9.09375 10.609375 -7.921875 11.015625 -6.640625 C 11.421875 -5.359375 11.703125 -4.328125 11.859375 -3.546875 L 12.03125 -3.546875 C 12.21875 -4.328125 12.53125 -5.359375 12.96875 -6.640625 C 13.40625 -7.929688 13.800781 -9.101562 14.15625 -10.15625 L 19.8125 -25.6875 L 23.984375 -25.6875 L 14.203125 0 Z M 9.75 0 "/></g></g><g transform="translate(581.319409, 472.550036)"><g><path d="M 8 -25.6875 L 8 0 L 4.109375 0 L 4.109375 -25.6875 Z M 6.09375 -35.296875 C 6.738281 -35.296875 7.289062 -35.085938 7.75 -34.671875 C 8.207031 -34.265625 8.4375 -33.625 8.4375 -32.75 C 8.4375 -31.882812 8.207031 -31.238281 7.75 -30.8125 C 7.289062 -30.394531 6.738281 -30.1875 6.09375 -30.1875 C 5.425781 -30.1875 4.867188 -30.394531 4.421875 -30.8125 C 3.972656 -31.238281 3.75 -31.882812 3.75 -32.75 C 3.75 -33.625 3.972656 -34.265625 4.421875 -34.671875 C 4.867188 -35.085938 5.425781 -35.296875 6.09375 -35.296875 Z M 6.09375 -35.296875 "/></g></g><g transform="translate(593.436596, 472.550036)"><g><path d="M 18.46875 5.65625 C 18.46875 6.382812 18.660156 6.941406 19.046875 7.328125 C 19.441406 7.710938 19.992188 7.90625 20.703125 7.90625 C 21.210938 7.90625 21.660156 7.867188 22.046875 7.796875 C 22.429688 7.722656 22.75 7.65625 23 7.59375 L 23 10.125 C 22.5625 10.238281 22.117188 10.335938 21.671875 10.421875 C 21.222656 10.503906 20.695312 10.546875 20.09375 10.546875 C 18.445312 10.546875 17.226562 10.15625 16.4375 9.375 C 15.65625 8.59375 15.265625 7.5 15.265625 6.09375 C 15.265625 5.1875 15.488281 4.304688 15.9375 3.453125 C 16.394531 2.609375 16.96875 1.820312 17.65625 1.09375 C 18.34375 0.363281 19.03125 -0.257812 19.71875 -0.78125 L 23.25 -1.171875 C 22 -0.171875 21.023438 0.710938 20.328125 1.484375 C 19.640625 2.265625 19.15625 2.984375 18.875 3.640625 C 18.601562 4.304688 18.46875 4.976562 18.46875 5.65625 Z M 14 -26.15625 C 16.1875 -26.15625 18.0625 -25.671875 19.625 -24.703125 C 21.1875 -23.734375 22.378906 -22.378906 23.203125 -20.640625 C 24.035156 -18.898438 24.453125 -16.863281 24.453125 -14.53125 L 24.453125 -12.125 L 6.703125 -12.125 C 6.753906 -9.101562 7.503906 -6.800781 8.953125 -5.21875 C 10.410156 -3.644531 12.457031 -2.859375 15.09375 -2.859375 C 16.71875 -2.859375 18.15625 -3.003906 19.40625 -3.296875 C 20.65625 -3.597656 21.953125 -4.039062 23.296875 -4.625 L 23.296875 -1.203125 C 22.003906 -0.617188 20.71875 -0.195312 19.4375 0.0625 C 18.164062 0.332031 16.664062 0.46875 14.9375 0.46875 C 12.46875 0.46875 10.3125 -0.0351562 8.46875 -1.046875 C 6.632812 -2.054688 5.207031 -3.535156 4.1875 -5.484375 C 3.175781 -7.441406 2.671875 -9.832031 2.671875 -12.65625 C 2.671875 -15.425781 3.132812 -17.820312 4.0625 -19.84375 C 5 -21.863281 6.3125 -23.421875 8 -24.515625 C 9.695312 -25.609375 11.695312 -26.15625 14 -26.15625 Z M 13.953125 -22.96875 C 11.867188 -22.96875 10.207031 -22.285156 8.96875 -20.921875 C 7.738281 -19.566406 7.007812 -17.671875 6.78125 -15.234375 L 20.375 -15.234375 C 20.351562 -16.765625 20.113281 -18.113281 19.65625 -19.28125 C 19.195312 -20.445312 18.5 -21.351562 17.5625 -22 C 16.625 -22.644531 15.421875 -22.96875 13.953125 -22.96875 Z M 13.953125 -22.96875 "/></g></g><g transform="translate(620.389719, 472.550036)"><g><path d="M 14.390625 0.46875 C 12.078125 0.46875 10.035156 -0.00390625 8.265625 -0.953125 C 6.503906 -1.910156 5.128906 -3.363281 4.140625 -5.3125 C 3.160156 -7.269531 2.671875 -9.734375 2.671875 -12.703125 C 2.671875 -15.816406 3.191406 -18.359375 4.234375 -20.328125 C 5.273438 -22.304688 6.707031 -23.769531 8.53125 -24.71875 C 10.363281 -25.675781 12.441406 -26.15625 14.765625 -26.15625 C 16.046875 -26.15625 17.285156 -26.023438 18.484375 -25.765625 C 19.679688 -25.515625 20.660156 -25.191406 21.421875 -24.796875 L 20.25 -21.546875 C 19.46875 -21.859375 18.566406 -22.140625 17.546875 -22.390625 C 16.523438 -22.640625 15.566406 -22.765625 14.671875 -22.765625 C 12.890625 -22.765625 11.410156 -22.378906 10.234375 -21.609375 C 9.054688 -20.847656 8.171875 -19.722656 7.578125 -18.234375 C 6.992188 -16.753906 6.703125 -14.925781 6.703125 -12.75 C 6.703125 -10.675781 6.988281 -8.90625 7.5625 -7.4375 C 8.132812 -5.96875 8.984375 -4.84375 10.109375 -4.0625 C 11.242188 -3.289062 12.664062 -2.90625 14.375 -2.90625 C 15.726562 -2.90625 16.953125 -3.050781 18.046875 -3.34375 C 19.140625 -3.632812 20.132812 -3.972656 21.03125 -4.359375 L 21.03125 -0.890625 C 20.164062 -0.453125 19.207031 -0.117188 18.15625 0.109375 C 17.101562 0.347656 15.847656 0.46875 14.390625 0.46875 Z M 14.390625 0.46875 "/></g></g><g transform="translate(643.381906, 472.550036)"><g><path d="M 14 -26.15625 C 16.1875 -26.15625 18.0625 -25.671875 19.625 -24.703125 C 21.1875 -23.734375 22.378906 -22.378906 23.203125 -20.640625 C 24.035156 -18.898438 24.453125 -16.863281 24.453125 -14.53125 L 24.453125 -12.125 L 6.703125 -12.125 C 6.753906 -9.101562 7.503906 -6.800781 8.953125 -5.21875 C 10.410156 -3.644531 12.457031 -2.859375 15.09375 -2.859375 C 16.71875 -2.859375 18.15625 -3.003906 19.40625 -3.296875 C 20.65625 -3.597656 21.953125 -4.039062 23.296875 -4.625 L 23.296875 -1.203125 C 22.003906 -0.617188 20.71875 -0.195312 19.4375 0.0625 C 18.164062 0.332031 16.664062 0.46875 14.9375 0.46875 C 12.46875 0.46875 10.3125 -0.0351562 8.46875 -1.046875 C 6.632812 -2.054688 5.207031 -3.535156 4.1875 -5.484375 C 3.175781 -7.441406 2.671875 -9.832031 2.671875 -12.65625 C 2.671875 -15.425781 3.132812 -17.820312 4.0625 -19.84375 C 5 -21.863281 6.3125 -23.421875 8 -24.515625 C 9.695312 -25.609375 11.695312 -26.15625 14 -26.15625 Z M 13.953125 -22.96875 C 11.867188 -22.96875 10.207031 -22.285156 8.96875 -20.921875 C 7.738281 -19.566406 7.007812 -17.671875 6.78125 -15.234375 L 20.375 -15.234375 C 20.351562 -16.765625 20.113281 -18.113281 19.65625 -19.28125 C 19.195312 -20.445312 18.5 -21.351562 17.5625 -22 C 16.625 -22.644531 15.421875 -22.96875 13.953125 -22.96875 Z M 13.953125 -22.96875 "/></g></g><g transform="translate(670.33503, 472.550036)"><g><path d="M 1.015625 11.53125 C 0.210938 11.53125 -0.484375 11.472656 -1.078125 11.359375 C -1.671875 11.242188 -2.1875 11.109375 -2.625 10.953125 L -2.625 7.78125 C -2.144531 7.9375 -1.65625 8.054688 -1.15625 8.140625 C -0.65625 8.234375 -0.0859375 8.28125 0.546875 8.28125 C 1.609375 8.28125 2.46875 7.984375 3.125 7.390625 C 3.78125 6.796875 4.109375 5.71875 4.109375 4.15625 L 4.109375 -25.6875 L 8 -25.6875 L 8 4.0625 C 8 5.625 7.75 6.960938 7.25 8.078125 C 6.75 9.191406 5.984375 10.046875 4.953125 10.640625 C 3.921875 11.234375 2.609375 11.53125 1.015625 11.53125 Z M 3.75 -32.75 C 3.75 -33.625 3.972656 -34.265625 4.421875 -34.671875 C 4.867188 -35.085938 5.425781 -35.296875 6.09375 -35.296875 C 6.738281 -35.296875 7.289062 -35.085938 7.75 -34.671875 C 8.207031 -34.265625 8.4375 -33.625 8.4375 -32.75 C 8.4375 -31.882812 8.207031 -31.238281 7.75 -30.8125 C 7.289062 -30.394531 6.738281 -30.1875 6.09375 -30.1875 C 5.425781 -30.1875 4.867188 -30.394531 4.421875 -30.8125 C 3.972656 -31.238281 3.75 -31.882812 3.75 -32.75 Z M 3.75 -32.75 "/></g></g></g><g clip-path="url(#c401fbd2b0)"><g clip-path="url(#39c25ac31f)"><g transform="matrix(1, 0, 0, 1, 92, 370)"><g clip-path="url(#1b9095400d)"><g clip-path="url(#b0d88e4f93)"><g clip-path="url(#face9b699a)"><path fill="#000000" d="M 0.667969 0.289062 L 128.78125 0.289062 L 128.78125 111.851562 L 0.667969 111.851562 Z M 0.667969 0.289062 " fill-opacity="1" fill-rule="nonzero"/></g></g></g></g></g></g><g clip-path="url(#a01dc4539f)"><path fill="#000000" d="M 285.488281 481.949219 L 221.335938 369.574219 L 189.640625 425.09375 L 222.433594 481.949219 Z M 285.488281 481.949219 " fill-opacity="1" fill-rule="evenodd"/></g><g clip-path="url(#ebf338c02a)"><g clip-path="url(#9708b8d396)"><g transform="matrix(1, 0, 0, 1, 173, 356)"><g clip-path="url(#f402f7b412)"><g clip-path="url(#c316faa31a)"><g clip-path="url(#4a73f494cb)"><path fill="#000000" d="M 0.359375 0.234375 L 31.882812 0.234375 L 31.882812 27.773438 L 0.359375 27.773438 Z M 0.359375 0.234375 " fill-opacity="1" fill-rule="nonzero"/></g></g></g></g></g></g><g clip-path="url(#8848fa07ef)"><g clip-path="url(#26b706cb39)"><g transform="matrix(1, 0, 0, 1, 173, 327)"><g clip-path="url(#4bb1b38071)"><g clip-path="url(#b00f4c1374)"><g clip-path="url(#0b24a2e625)"><path fill="#000000" d="M 0.371094 0.25 L 31.890625 0.25 L 31.890625 27.789062 L 0.371094 27.789062 Z M 0.371094 0.25 " fill-opacity="1" fill-rule="nonzero"/></g></g></g></g></g></g></svg>